<svg xmlns="http://www.w3.org/2000/svg" enable-background="new 0 0 24 24" viewBox="0 0 24 24" id="day"><g display="none"><circle cx="12" cy="12" r="5" fill="#00ffef"></circle><rect width="1.25" height="2.5" x="11.375" y="2" fill="#008eca"></rect><rect width="2.5" height="1.25" x="2" y="11.375" fill="#008eca"></rect><rect width="1.25" height="2.5" x="11.375" y="19.5" fill="#008eca"></rect><rect width="2.5" height="1.25" x="19.5" y="11.375" fill="#008eca"></rect><rect width="1.25" height="2.501" x="5.188" y="4.563" fill="#008eca" transform="rotate(-45.02 5.812 5.813)"></rect><rect width="2.501" height="1.25" x="4.563" y="17.562" fill="#008eca" transform="rotate(-45.001 5.813 18.187)"></rect><rect width="1.25" height="2.501" x="17.562" y="16.937" fill="#008eca" transform="rotate(-45.02 18.186 18.186)"></rect><rect width="2.501" height="1.25" x="16.937" y="5.188" fill="#008eca" transform="rotate(-45.001 18.187 5.813)"></rect></g><linearGradient id="a" x1="8.464" x2="15.536" y1="8.464" y2="15.536" gradientUnits="userSpaceOnUse"><stop offset="0" stop-color="#ffcf1b"></stop><stop offset="1" stop-color="#ff881b"></stop></linearGradient><circle cx="12" cy="12" r="5" fill="url(#a)"></circle><linearGradient id="b" x1="11.063" x2="12.938" y1="2.313" y2="4.188" gradientUnits="userSpaceOnUse"><stop offset="0" stop-color="#fff7d9"></stop><stop offset="1" stop-color="#ff9c41"></stop></linearGradient><rect width="1.25" height="2.5" x="11.375" y="2" fill="url(#b)"></rect><linearGradient id="c" x1="2.313" x2="4.188" y1="11.063" y2="12.938" gradientUnits="userSpaceOnUse"><stop offset="0" stop-color="#fff7d9"></stop><stop offset="1" stop-color="#ff9c41"></stop></linearGradient><rect width="2.5" height="1.25" x="2" y="11.375" fill="url(#c)"></rect><linearGradient id="d" x1="11.063" x2="12.938" y1="19.813" y2="21.688" gradientUnits="userSpaceOnUse"><stop offset="0" stop-color="#fff7d9"></stop><stop offset="1" stop-color="#ff9c41"></stop></linearGradient><rect width="1.25" height="2.5" x="11.375" y="19.5" fill="url(#d)"></rect><linearGradient id="e" x1="19.813" x2="21.688" y1="11.063" y2="12.938" gradientUnits="userSpaceOnUse"><stop offset="0" stop-color="#fff7d9"></stop><stop offset="1" stop-color="#ff9c41"></stop></linearGradient><rect width="2.5" height="1.25" x="19.5" y="11.375" fill="url(#e)"></rect><linearGradient id="f" x1="4.929" x2="6.697" y1="4.929" y2="6.697" gradientUnits="userSpaceOnUse"><stop offset="0" stop-color="#fff7d9"></stop><stop offset="1" stop-color="#ff9c41"></stop></linearGradient><polygon fill="url(#f)" points="6.255 7.139 4.487 5.371 5.37 4.487 7.139 6.255"></polygon><linearGradient id="g" x1="5.371" x2="6.255" y1="17.745" y2="18.629" gradientUnits="userSpaceOnUse"><stop offset="0" stop-color="#fff7d9"></stop><stop offset="1" stop-color="#ff9c41"></stop></linearGradient><polygon fill="url(#g)" points="5.37 19.513 4.487 18.629 6.255 16.861 7.139 17.745"></polygon><g><linearGradient id="h" x1="17.303" x2="19.071" y1="17.303" y2="19.071" gradientUnits="userSpaceOnUse"><stop offset="0" stop-color="#fff7d9"></stop><stop offset="1" stop-color="#ff9c41"></stop></linearGradient><polygon fill="url(#h)" points="18.63 19.513 16.861 17.745 17.745 16.861 19.513 18.629"></polygon></g><g><linearGradient id="i" x1="17.745" x2="18.629" y1="5.371" y2="6.255" gradientUnits="userSpaceOnUse"><stop offset="0" stop-color="#fff7d9"></stop><stop offset="1" stop-color="#ff9c41"></stop></linearGradient><polygon fill="url(#i)" points="17.745 7.139 16.861 6.255 18.63 4.487 19.513 5.371"></polygon></g><g display="none"><circle cx="12" cy="12" r="5" fill="#ad9cff"></circle><rect width="1.25" height="2.5" x="11.375" y="2" fill="#ffd7b3"></rect><rect width="2.5" height="1.25" x="2" y="11.375" fill="#ffd7b3"></rect><rect width="1.25" height="2.5" x="11.375" y="19.5" fill="#ffd7b3"></rect><rect width="2.5" height="1.25" x="19.5" y="11.375" fill="#ffd7b3"></rect><rect width="1.25" height="2.501" x="5.188" y="4.563" fill="#ffd7b3" transform="rotate(-45.02 5.812 5.813)"></rect><rect width="2.501" height="1.25" x="4.563" y="17.562" fill="#ffd7b3" transform="rotate(-45.001 5.813 18.187)"></rect><rect width="1.25" height="2.501" x="17.562" y="16.937" fill="#ffd7b3" transform="rotate(-45.02 18.186 18.186)"></rect><rect width="2.501" height="1.25" x="16.937" y="5.188" fill="#ffd7b3" transform="rotate(-45.001 18.187 5.813)"></rect><path d="M12,16.5c-2.481,0-4.5-2.019-4.5-4.5S9.519,7.5,12,7.5s4.5,2.019,4.5,4.5S14.481,16.5,12,16.5z M12,8.5
				c-1.93,0-3.5,1.57-3.5,3.5s1.57,3.5,3.5,3.5s3.5-1.57,3.5-3.5S13.93,8.5,12,8.5z"></path><rect width="1" height="2" x="11.5" y="4"></rect><rect width="2" height="1" x="4" y="11.5"></rect><rect width="1" height="2" x="11.5" y="18"></rect><rect width="2" height="1" x="18" y="11.5"></rect><rect width="1" height="2" x="6.55" y="6.05" transform="rotate(-45.02 7.05 7.05)"></rect><rect width="2" height="1" x="6.05" y="16.45" transform="rotate(-45.001 7.05 16.95)"></rect><rect width="1" height="2" x="16.45" y="15.949" transform="rotate(-45.02 16.948 16.949)"></rect><rect width="2" height="1" x="15.949" y="6.55" transform="rotate(-45.001 16.95 7.05)"></rect></g><g display="none"><linearGradient id="j" x1="8.024" x2="15.976" y1="8.024" y2="15.976" gradientUnits="userSpaceOnUse"><stop offset="0" stop-color="#ffcda5"></stop><stop offset="1" stop-color="#ee4d5f"></stop></linearGradient><path fill="url(#j)" d="M12,17.625
			c-3.102,0-5.625-2.523-5.625-5.625S8.898,6.375,12,6.375S17.625,8.898,17.625,12S15.102,17.625,12,17.625z M12,7.625
			c-2.412,0-4.375,1.963-4.375,4.375S9.588,16.375,12,16.375s4.375-1.963,4.375-4.375S14.412,7.625,12,7.625z"></path><linearGradient id="k" x1="11.063" x2="12.938" y1="2.313" y2="4.188" gradientUnits="userSpaceOnUse"><stop offset="0" stop-color="#ffcda5"></stop><stop offset="1" stop-color="#ee4d5f"></stop></linearGradient><rect width="1.25" height="2.5" x="11.375" y="2" fill="url(#k)"></rect><linearGradient id="l" x1="2.313" x2="4.188" y1="11.063" y2="12.938" gradientUnits="userSpaceOnUse"><stop offset="0" stop-color="#ffcda5"></stop><stop offset="1" stop-color="#ee4d5f"></stop></linearGradient><rect width="2.5" height="1.25" x="2" y="11.375" fill="url(#l)"></rect><linearGradient id="m" x1="11.063" x2="12.938" y1="19.813" y2="21.688" gradientUnits="userSpaceOnUse"><stop offset="0" stop-color="#ffcda5"></stop><stop offset="1" stop-color="#ee4d5f"></stop></linearGradient><rect width="1.25" height="2.5" x="11.375" y="19.5" fill="url(#m)"></rect><linearGradient id="n" x1="19.813" x2="21.688" y1="11.063" y2="12.938" gradientUnits="userSpaceOnUse"><stop offset="0" stop-color="#ffcda5"></stop><stop offset="1" stop-color="#ee4d5f"></stop></linearGradient><rect width="2.5" height="1.25" x="19.5" y="11.375" fill="url(#n)"></rect><linearGradient id="o" x1="4.929" x2="6.697" y1="4.929" y2="6.697" gradientUnits="userSpaceOnUse"><stop offset="0" stop-color="#ffcda5"></stop><stop offset="1" stop-color="#ee4d5f"></stop></linearGradient><polygon fill="url(#o)" points="6.255 7.139 4.487 5.371 5.37 4.487 7.139 6.255"></polygon><linearGradient id="p" x1="5.371" x2="6.255" y1="17.745" y2="18.629" gradientUnits="userSpaceOnUse"><stop offset="0" stop-color="#ffcda5"></stop><stop offset="1" stop-color="#ee4d5f"></stop></linearGradient><polygon fill="url(#p)" points="5.37 19.513 4.487 18.629 6.255 16.861 7.139 17.745"></polygon><g><linearGradient id="q" x1="17.303" x2="19.071" y1="17.303" y2="19.071" gradientUnits="userSpaceOnUse"><stop offset="0" stop-color="#ffcda5"></stop><stop offset="1" stop-color="#ee4d5f"></stop></linearGradient><polygon fill="url(#q)" points="18.63 19.513 16.861 17.745 17.745 16.861 19.513 18.629"></polygon></g><g><linearGradient id="r" x1="17.745" x2="18.629" y1="5.371" y2="6.255" gradientUnits="userSpaceOnUse"><stop offset="0" stop-color="#ffcda5"></stop><stop offset="1" stop-color="#ee4d5f"></stop></linearGradient><polygon fill="url(#r)" points="17.745 7.139 16.861 6.255 18.63 4.487 19.513 5.371"></polygon></g></g><g display="none"><path d="M12,17.625c-3.102,0-5.625-2.523-5.625-5.625S8.898,6.375,12,6.375S17.625,8.898,17.625,12S15.102,17.625,12,17.625z
			 M12,7.625c-2.412,0-4.375,1.963-4.375,4.375S9.588,16.375,12,16.375s4.375-1.963,4.375-4.375S14.412,7.625,12,7.625z"></path><rect width="1.25" height="2.5" x="11.375" y="2"></rect><rect width="2.5" height="1.25" x="2" y="11.375"></rect><rect width="1.25" height="2.5" x="11.375" y="19.5"></rect><rect width="2.5" height="1.25" x="19.5" y="11.375"></rect><rect width="1.25" height="2.501" x="5.188" y="4.563" transform="rotate(-45.02 5.812 5.813)"></rect><rect width="2.501" height="1.25" x="4.563" y="17.562" transform="rotate(-45.001 5.813 18.187)"></rect><rect width="1.25" height="2.501" x="17.562" y="16.937" transform="rotate(-45.02 18.186 18.186)"></rect><rect width="2.501" height="1.25" x="16.937" y="5.188" transform="rotate(-45.001 18.187 5.813)"></rect></g></svg>