<svg xmlns="http://www.w3.org/2000/svg" width="24" height="24" fill="none" viewBox="0 0 24 24" id="dashboard"><path fill="#C4E6FF" fill-rule="evenodd" d="M22.2499 17C21.5899 18.69 20.5242 20.1766 19.1735 21.3394C18.6381 21.8003 17.9701 22 17.3334 22H6.66758C6.03094 22 5.36309 21.8004 4.82768 21.3396C3.47673 20.1768 2.41066 18.6902 1.75037 17H22.2499Z" clip-rule="evenodd"></path><path fill="#024493" fill-rule="evenodd" d="M12 4C7.02944 4 3 8.02944 3 13C3 15.7282 4.21294 18.1717 6.13232 19.8237C6.25367 19.9282 6.43762 20 6.66752 20H17.3334C17.5633 20 17.7473 19.9281 17.8686 19.8237C19.7875 18.1717 21 15.728 21 13C21 8.02944 16.9706 4 12 4ZM1 13C1 6.92487 5.92487 2 12 2C18.0751 2 23 6.92487 23 13C23 16.3347 21.5149 19.3236 19.1735 21.3394C18.638 21.8003 17.9701 22 17.3334 22H6.66752C6.03088 22 5.36303 21.8004 4.82762 21.3396C2.4858 19.3239 1 16.3351 1 13Z" clip-rule="evenodd"></path><path fill="#1E93FF" fill-rule="evenodd" d="M12 2C12.5523 2 13 2.44772 13 3V6C13 6.55228 12.5523 7 12 7C11.4477 7 11 6.55228 11 6V3C11 2.44772 11.4477 2 12 2ZM13.9323 12.482C13.9764 12.6472 14 12.8208 14 13C14 14.1046 13.1046 15 12 15C10.8954 15 10 14.1046 10 13C10 11.8954 10.8954 11 12 11C12.1792 11 12.3528 11.0236 12.518 11.0677L15.2929 8.29289C15.6834 7.90237 16.3166 7.90237 16.7071 8.29289C17.0976 8.68342 17.0976 9.31658 16.7071 9.70711L13.9323 12.482ZM2 12C1.44772 12 1 12.4477 1 13C1 13.5523 1.44772 14 2 14H5C5.55228 14 6 13.5523 6 13C6 12.4477 5.55228 12 5 12H2ZM18 13C18 12.4477 18.4477 12 19 12H22C22.5523 12 23 12.4477 23 13C23 13.5523 22.5523 14 22 14H19C18.4477 14 18 13.5523 18 13ZM4.2228 6.63711L6.29285 8.70709C6.68338 9.09761 7.31654 9.0976 7.70706 8.70707C8.09758 8.31654 8.09757 7.68337 7.70704 7.29285L5.637 5.22287C5.24647 4.83236 4.6133 4.83237 4.22278 5.2229C3.83226 5.61343 3.83227 6.24659 4.2228 6.63711Z" clip-rule="evenodd"></path></svg>