<svg xmlns="http://www.w3.org/2000/svg" width="655.359" height="655.359" fill-rule="evenodd" clip-rule="evenodd" image-rendering="optimizeQuality" shape-rendering="geometricPrecision" text-rendering="geometricPrecision" viewBox="0 0 6.827 6.827" id="wind"><path fill="#0288d1" d="m3.086 4.077.018.001c.101.01.194.048.261.126.068.079.098.183.098.286a.435.435 0 0 1-.103.284.36.36 0 0 1-.274.13.356.356 0 0 1-.24-.095c-.065-.058-.118-.11-.136-.195-.018-.083.033-.183.118-.182.082 0 .084.078.12.155.128.285.422-.206.139-.202H1.473a.154.154 0 0 1 0-.308h1.613z"></path><path fill="#1976d2" d="M4.406 3.238c0-.085.069-.154.153-.154H5.6a.053.053 0 0 0 .044-.02c.018-.02.023-.059.023-.086 0-.029-.008-.06-.028-.083-.01-.012-.025-.022-.042-.022a.052.052 0 0 0-.034.015.112.112 0 0 0-.032.059.154.154 0 0 1-.3-.065.42.42 0 0 1 .126-.223.356.356 0 0 1 .24-.094.36.36 0 0 1 .274.13c.068.078.103.18.103.283 0 .104-.03.208-.098.287a.382.382 0 0 1-.26.125l-.019.001H4.56a.154.154 0 0 1-.153-.153zm-.207.232.017.001a.553.553 0 0 1 .381.18c.101.116.143.27.143.422a.641.641 0 0 1-.151.418.514.514 0 0 1-.39.186.506.506 0 0 1-.34-.135.614.614 0 0 1-.186-.325.154.154 0 0 1 .3-.065c.014.06.044.12.091.162a.2.2 0 0 0 .135.055.21.21 0 0 0 .158-.078.334.334 0 0 0 .076-.218.346.346 0 0 0-.068-.222.203.203 0 0 0-.163-.074h-2.8a.154.154 0 0 1 0-.307H4.2z"></path><path fill="#0288d1" d="M1.007 2.823h2.8c.065 0 .12-.024.163-.074a.346.346 0 0 0 .067-.222.334.334 0 0 0-.075-.218.21.21 0 0 0-.158-.078.2.2 0 0 0-.135.055.307.307 0 0 0-.09.163.154.154 0 0 1-.3-.065.614.614 0 0 1 .184-.326.506.506 0 0 1 .34-.134c.153 0 .292.07.39.185.1.115.152.266.152.418a.644.644 0 0 1-.143.423.553.553 0 0 1-.381.179H1.007a.154.154 0 0 1 0-.306z"></path><path fill="none" d="M0 0h6.827v6.827H0z"></path></svg>